HIERARCHY
ROOT Hips
{
	OFFSET 0.00 0.00 0.00
	CHANNELS 6 Xposition Yposition Zposition Xrotation Yrotation Zrotation
	JOINT Spine
	{
		OFFSET 0.00000 0.84964 1.27446
		CHANNELS 3 Xrotation Yrotation Zrotation
		JOINT Spine1
		{
			OFFSET 0.00000 0.29508 1.67346
			CHANNELS 3 Xrotation Yrotation Zrotation
			JOINT Spine2
			{
				OFFSET 0.00000 0.14810 1.69281
				CHANNELS 3 Xrotation Yrotation Zrotation
				JOINT Spine3
				{
					OFFSET 0.00000 0.00000 1.69928
					CHANNELS 3 Xrotation Yrotation Zrotation
					JOINT Neck
					{
						OFFSET 0.00000 -0.63723 4.46061
						CHANNELS 3 Xrotation Yrotation Zrotation
						JOINT Head
						{
							OFFSET 0.00000 -0.40573 2.30101
							CHANNELS 3 Xrotation Yrotation Zrotation
							End Site
							{
								OFFSET 0.00000 0.00000 2.75071
							}
						}
					}
					JOINT RightShoulder
					{
						OFFSET -0.72014 -1.20022 3.88874
						CHANNELS 3 Xrotation Yrotation Zrotation
						JOINT RightArm
						{
							OFFSET -3.57668 0.00000 0.00000
							CHANNELS 3 Xrotation Yrotation Zrotation
							JOINT RightForeArm
							{
								OFFSET -5.92485 0.00000 0.00000
								CHANNELS 3 Xrotation Yrotation Zrotation
								JOINT RightHand
								{
									OFFSET -6.63013 0.00000 0.00000
									CHANNELS 3 Xrotation Yrotation Zrotation
									JOINT RightHandEnd
									{
										OFFSET -1.65321 0.00000 0.00000
										CHANNELS 3 Xrotation Yrotation Zrotation
										End Site
										{
											OFFSET -1.65321 0.00000 0.00000
										}
									}
									JOINT RightHandThumb1
									{
										OFFSET -0.66129 -1.10214 -0.44086
										CHANNELS 3 Yrotation Xrotation Zrotation
										End Site
										{
											OFFSET -1.59688 -0.42788 0.00000
										}
									}
								}
							}
						}
					}
					JOINT LeftShoulder
					{
						OFFSET 0.72014 -1.20022 3.88874
						CHANNELS 3 Xrotation Yrotation Zrotation
						JOINT LeftArm
						{
							OFFSET 3.57668 0.00000 0.00000
							CHANNELS 3 Xrotation Yrotation Zrotation
							JOINT LeftForeArm
							{
								OFFSET 5.92485 0.00000 0.00000
								CHANNELS 3 Xrotation Yrotation Zrotation
								JOINT LeftHand
								{
									OFFSET 6.63013 0.00000 0.00000
									CHANNELS 3 Xrotation Yrotation Zrotation
									JOINT LeftHandEnd
									{
										OFFSET 1.65321 0.00000 0.00000
										CHANNELS 3 Xrotation Yrotation Zrotation
										End Site
										{
											OFFSET 1.65321 0.00000 0.00000
										}
									}
									JOINT LeftHandThumb1
									{
										OFFSET 0.66129 -1.10214 -0.44086
										CHANNELS 3 Yrotation Xrotation Zrotation
										End Site
										{
											OFFSET 1.59688 -0.42788 0.00000
										}
									}
								}
							}
						}
					}
				}
			}
		}
	}
	JOINT RightUpLeg
	{
		OFFSET -2.13640 0.00000 -0.62412
		CHANNELS 3 Xrotation Yrotation Zrotation
		JOINT RightLeg
		{
			OFFSET 0.00000 0.00000 -11.49360
			CHANNELS 3 Xrotation Yrotation Zrotation
			JOINT RightFoot
			{
				OFFSET 0.00000 0.00000 -8.79036
				CHANNELS 3 Xrotation Yrotation Zrotation
				JOINT RightToeBase
				{
					OFFSET 0.00000 -3.94625 -1.43632
					CHANNELS 3 Xrotation Yrotation Zrotation
					End Site
					{
						OFFSET 0.00000 -1.72833 -0.00000
					}
				}
			}
		}
	}
	JOINT LeftUpLeg
	{
		OFFSET 2.13640 0.00000 -0.62412
		CHANNELS 3 Xrotation Yrotation Zrotation
		JOINT LeftLeg
		{
			OFFSET 0.00000 0.00000 -11.49360
			CHANNELS 3 Xrotation Yrotation Zrotation
			JOINT LeftFoot
			{
				OFFSET 0.00000 0.00000 -8.79036
				CHANNELS 3 Xrotation Yrotation Zrotation
				JOINT LeftToeBase
				{
					OFFSET 0.00000 -3.94625 -1.43632
					CHANNELS 3 Xrotation Yrotation Zrotation
					End Site
					{
						OFFSET 0.00000 -1.72833 -0.00000
					}
				}
			}
		}
	}
}
MOTION
Frames: 13
Frame Time: 0.008342
 -0.2149 -41.3077 23.3881 -2.0042 -0.1888 -145.8915 1.1093 -0.8110 1.2960 -0.8351 -0.0152 1.1945 5.7608 8.4546 18.0192 0.2151 7.3438 0.3360 -11.8684 -14.9255 -18.2000 -5.8675 4.1182 -38.9391 -1.3023 9.8049 5.4226 -34.1859 -27.3988 2.6839 0.0000 0.0000 16.1556 -20.2301 12.4165 -10.2747 0.0000 -0.0000 0.0000 -0.0000 0.0000 0.0000 4.6143 17.5676 2.2644 -17.8880 52.4579 7.2821 -0.0000 -0.0000 -24.1568 -4.6546 -23.0386 11.3265 -0.0000 0.0000 0.0000 -0.0000 -0.0000 0.0000 5.5114 1.8699 -78.3409 0.6834 0.0000 0.0000 -10.0324 -2.4779 35.2351 -1.3188 0.0000 -0.0000 -2.0540 1.3460 5.1897 -8.9151 0.0000 -0.0000 4.3574 -2.1900 -24.5579 2.1391 0.0000 0.0000
 -0.2153 -41.3031 23.3883 -1.9877 -0.1651 -145.9575 1.1128 -0.8084 1.2971 -0.8323 -0.0135 1.1948 5.7571 8.5030 18.0063 0.2127 7.3586 0.3274 -11.8716 -14.9318 -18.2097 -5.8744 4.1183 -38.9540 -1.2912 9.7378 5.4159 -34.1873 -27.3518 2.6644 0.0000 0.0000 16.1830 -20.2393 12.5379 -10.3294 0.0000 -0.0000 0.0000 0.0000 -0.0000 -0.0000 4.5925 17.5838 2.2440 -17.9746 52.3356 7.2716 -0.0000 -0.0000 -24.2738 -4.6299 -22.9827 11.3179 0.0000 0.0000 0.0000 0.0000 -0.0000 0.0000 5.5416 1.8767 -78.3069 0.6736 0.0000 0.0000 -10.0324 -2.4810 35.2649 -1.3106 0.0000 -0.0000 -2.0114 1.3462 5.2189 -8.9111 0.0000 -0.0000 4.3384 -2.1840 -24.5209 2.1407 0.0000 0.0000
 -0.2157 -41.2988 23.3884 -1.9668 -0.1381 -146.0246 1.1208 -0.8038 1.2982 -0.8279 -0.0114 1.1956 5.7517 8.5490 17.9936 0.2100 7.3734 0.3190 -11.8733 -14.9376 -18.2166 -5.8792 4.1174 -38.9685 -1.2829 9.6737 5.4108 -34.1828 -27.3015 2.6419 0.0000 0.0000 16.2122 -20.2486 12.6570 -10.3764 0.0000 0.0000 -0.0000 0.0000 -0.0000 -0.0000 4.5727 17.6039 2.2245 -18.0713 52.2189 7.2731 -0.0000 -0.0000 -24.3958 -4.6090 -22.9218 11.3029 -0.0000 -0.0000 0.0000 -0.0000 0.0000 0.0000 5.5769 1.8845 -78.2723 0.6648 0.0000 0.0000 -10.0324 -2.4842 35.2949 -1.3021 0.0000 -0.0000 -1.9648 1.3469 5.2496 -8.9032 0.0000 -0.0000 4.3159 -2.1806 -24.4846 2.1419 0.0000 0.0000
 -0.2162 -41.2945 23.3886 -1.9398 -0.1074 -146.0936 1.1355 -0.7964 1.2988 -0.8233 -0.0082 1.1972 5.7459 8.5904 17.9825 0.2062 7.3865 0.3100 -11.8732 -14.9413 -18.2208 -5.8821 4.1152 -38.9807 -1.2763 9.6126 5.4091 -34.1789 -27.2457 2.6145 0.0000 0.0000 16.2436 -20.2572 12.7684 -10.4203 0.0000 -0.0000 -0.0000 -0.0000 -0.0000 0.0000 4.5588 17.6303 2.2034 -18.1808 52.1073 7.2866 -0.0000 -0.0000 -24.5204 -4.5930 -22.8585 11.2794 0.0000 -0.0000 -0.0000 -0.0000 0.0000 -0.0000 5.6192 1.8923 -78.2381 0.6559 0.0000 0.0000 -10.0315 -2.4881 35.3270 -1.2945 0.0000 -0.0000 -1.9124 1.3470 5.2798 -8.8920 0.0000 -0.0000 4.2897 -2.1803 -24.4462 2.1423 0.0000 0.0000
 -0.2165 -41.2906 23.3887 -1.9168 -0.0811 -146.1616 1.1440 -0.7893 1.2982 -0.8217 -0.0037 1.1997 5.7441 8.6298 17.9699 0.2033 7.4004 0.2968 -11.8758 -14.9503 -18.2193 -5.8849 4.1158 -38.9906 -1.2798 9.5533 5.4073 -34.1789 -27.1943 2.5856 0.0000 0.0000 16.2715 -20.2675 12.8707 -10.4479 -0.0000 -0.0000 0.0000 -0.0000 -0.0000 0.0000 4.5325 17.6589 2.1988 -18.2813 52.0050 7.2967 -0.0000 -0.0000 -24.6436 -4.5813 -22.7909 11.2489 -0.0000 0.0000 0.0000 0.0000 -0.0000 0.0000 5.6547 1.8996 -78.2060 0.6478 0.0000 0.0000 -10.0299 -2.4925 35.3601 -1.2879 0.0000 -0.0000 -1.8686 1.3461 5.3079 -8.8764 0.0000 -0.0000 4.2599 -2.1838 -24.4070 2.1425 0.0000 0.0000
 -0.2171 -41.2868 23.3888 -1.8777 -0.0423 -146.2327 1.1722 -0.7771 1.3012 -0.8154 -0.0015 1.1969 5.7368 8.6652 17.9542 0.1995 7.4175 0.2913 -11.8780 -14.9603 -18.2186 -5.8850 4.1161 -38.9962 -1.2879 9.4963 5.4087 -34.1893 -27.1402 2.5446 0.0000 0.0000 16.3021 -20.2718 12.9564 -10.4759 -0.0000 -0.0000 0.0000 -0.0000 -0.0000 0.0000 4.5159 17.6820 2.1901 -18.3965 51.9186 7.3201 -0.0000 -0.0000 -24.7648 -4.5746 -22.7258 11.2085 0.0000 0.0000 0.0000 -0.0000 -0.0000 0.0000 5.7114 1.9097 -78.1712 0.6407 0.0000 0.0000 -10.0286 -2.4986 35.3925 -1.2834 0.0000 -0.0000 -1.8028 1.3472 5.3386 -8.8613 0.0000 -0.0000 4.2282 -2.1903 -24.3677 2.1419 0.0000 0.0000
 -0.2177 -41.2830 23.3890 -1.8347 -0.0022 -146.3086 1.2001 -0.7630 1.3047 -0.8058 0.0021 1.1989 5.7302 8.6977 17.9357 0.1951 7.4281 0.2856 -11.8805 -14.9661 -18.2144 -5.8850 4.1165 -38.9984 -1.3024 9.4462 5.4070 -34.2093 -27.0908 2.5050 0.0000 0.0000 16.3281 -20.2727 13.0310 -10.5015 0.0000 -0.0000 -0.0000 0.0000 -0.0000 -0.0000 4.5000 17.7156 2.1824 -18.5088 51.8344 7.3462 -0.0000 -0.0000 -24.8861 -4.5732 -22.6600 11.1651 -0.0000 0.0000 0.0000 -0.0000 -0.0000 0.0000 5.7712 1.9197 -78.1294 0.6341 0.0000 0.0000 -10.0267 -2.5049 35.4224 -1.2810 0.0000 -0.0000 -1.7323 1.3476 5.3767 -8.8471 0.0000 -0.0000 4.1955 -2.1989 -24.3312 2.1412 0.0000 0.0000
 -0.2180 -41.2796 23.3891 -1.8030 0.0285 -146.3849 1.2099 -0.7461 1.3079 -0.7975 0.0055 1.2003 5.7291 8.7284 17.9159 0.1912 7.4377 0.2758 -11.8876 -14.9765 -18.2056 -5.8844 4.1180 -38.9971 -1.3158 9.3925 5.4061 -34.2435 -27.0385 2.4693 0.0000 0.0000 16.3515 -20.2658 13.0946 -10.5309 0.0000 0.0000 -0.0000 0.0000 -0.0000 -0.0000 4.4720 17.7466 2.1891 -18.6069 51.7645 7.3678 -0.0000 -0.0000 -25.0003 -4.5732 -22.5936 11.1150 -0.0000 0.0000 0.0000 0.0000 -0.0000 0.0000 5.8149 1.9280 -78.0890 0.6268 0.0000 0.0000 -10.0239 -2.5107 35.4537 -1.2806 0.0000 -0.0000 -1.6799 1.3461 5.4115 -8.8286 0.0000 -0.0000 4.1609 -2.2081 -24.2910 2.1402 0.0000 0.0000
 -0.2186 -41.2761 23.3893 -1.7614 0.0677 -146.4631 1.2348 -0.7247 1.3099 -0.7950 0.0107 1.2008 5.7317 8.7527 17.8974 0.1858 7.4484 0.2668 -11.8944 -14.9869 -18.1962 -5.8841 4.1203 -38.9922 -1.3292 9.3435 5.4036 -34.2931 -26.9906 2.4308 0.0000 0.0000 16.3729 -20.2463 13.1500 -10.5644 0.0000 0.0000 -0.0000 0.0000 -0.0000 0.0000 4.4486 17.7773 2.1958 -18.6948 51.7041 7.3855 -0.0000 -0.0000 -25.1105 -4.5747 -22.5294 11.0651 0.0000 -0.0000 -0.0000 -0.0000 -0.0000 -0.0000 5.8723 1.9384 -78.0558 0.6186 0.0000 0.0000 -10.0204 -2.5193 35.4933 -1.2821 0.0000 -0.0000 -1.6125 1.3468 5.4457 -8.8121 0.0000 -0.0000 4.1276 -2.2163 -24.2481 2.1407 0.0000 0.0000
 -0.2187 -41.2730 23.3895 -1.7497 0.0817 -146.5437 1.2118 -0.7093 1.3115 -0.7894 0.0181 1.2044 5.7395 8.7823 17.8773 0.1834 7.4558 0.2569 -11.9088 -15.0029 -18.1917 -5.8853 4.1236 -38.9806 -1.3534 9.2836 5.3970 -34.3335 -26.9372 2.4070 0.0000 0.0000 16.3906 -20.2216 13.2036 -10.6052 0.0000 0.0000 -0.0000 0.0000 -0.0000 -0.0000 4.4194 17.8097 2.2035 -18.7615 51.6467 7.3938 -0.0000 -0.0000 -25.2143 -4.5789 -22.4698 11.0150 0.0000 -0.0000 -0.0000 0.0000 0.0000 -0.0000 5.8877 1.9435 -78.0136 0.6093 0.0000 0.0000 -10.0156 -2.5240 35.5269 -1.2848 0.0000 -0.0000 -1.5875 1.3425 5.4833 -8.7937 0.0000 -0.0000 4.0953 -2.2213 -24.2060 2.1432 0.0000 0.0000
 -0.2193 -41.2694 23.3898 -1.7144 0.1183 -146.6264 1.2256 -0.6840 1.3144 -0.7892 0.0242 1.2028 5.7450 8.8089 17.8573 0.1805 7.4627 0.2509 -11.9229 -15.0171 -18.1870 -5.8853 4.1269 -38.9676 -1.3738 9.2328 5.3892 -34.3834 -26.8908 2.3812 0.0000 0.0000 16.4091 -20.1829 13.2575 -10.6566 0.0000 -0.0000 0.0000 -0.0000 0.0000 0.0000 4.3933 17.8328 2.2182 -18.8086 51.6098 7.3875 -0.0000 -0.0000 -25.3059 -4.5796 -22.4160 10.9662 0.0000 0.0000 0.0000 -0.0000 -0.0000 0.0000 5.9378 1.9558 -77.9754 0.6013 0.0000 0.0000 -10.0128 -2.5321 35.5654 -1.2876 0.0000 -0.0000 -1.5247 1.3450 5.5240 -8.7819 0.0000 -0.0000 4.0678 -2.2211 -24.1643 2.1479 0.0000 0.0000
 -0.2197 -41.2657 23.3901 -1.6943 0.1409 -146.7150 1.2123 -0.6605 1.3204 -0.7855 0.0312 1.2060 5.7531 8.8366 17.8349 0.1781 7.4657 0.2450 -11.9398 -15.0313 -18.1847 -5.8869 4.1302 -38.9531 -1.3948 9.1821 5.3748 -34.4280 -26.8479 2.3673 0.0000 0.0000 16.4249 -20.1350 13.3197 -10.7124 0.0000 -0.0000 -0.0000 -0.0000 0.0000 -0.0000 4.3668 17.8609 2.2284 -18.8334 51.5714 7.3737 -0.0000 -0.0000 -25.3921 -4.5787 -22.3651 10.9259 -0.0000 0.0000 -0.0000 -0.0000 -0.0000 -0.0000 5.9659 1.9633 -77.9257 0.5899 0.0000 0.0000 -10.0077 -2.5374 35.5991 -1.2896 0.0000 -0.0000 -1.4810 1.3439 5.5766 -8.7746 0.0000 -0.0000 4.0446 -2.2136 -24.1279 2.1557 0.0000 0.0000
 -0.2203 -41.2613 23.3904 -1.6541 0.1774 -146.8080 1.2241 -0.6315 1.3287 -0.7828 0.0390 1.2099 5.7583 8.8569 17.8104 0.1770 7.4669 0.2429 -11.9573 -15.0394 -18.1839 -5.8878 4.1332 -38.9389 -1.4166 9.1458 5.3555 -34.4692 -26.8179 2.3543 0.0000 0.0000 16.4419 -20.0764 13.3906 -10.7735 0.0000 0.0000 -0.0000 0.0000 0.0000 -0.0000 4.3478 17.8877 2.2398 -18.8297 51.5438 7.3355 -0.0000 -0.0000 -25.4643 -4.5771 -22.3227 10.8918 0.0000 0.0000 -0.0000 -0.0000 0.0000 0.0000 6.0209 1.9702 -77.8745 0.5748 0.0000 0.0000 -9.9995 -2.5457 35.6356 -1.2903 0.0000 -0.0000 -1.4048 1.3439 5.6373 -8.7797 0.0000 -0.0000 4.0289 -2.1972 -24.0947 2.1672 0.0000 0.0000
